<svg xmlns="http://www.w3.org/2000/svg"  viewBox="0 0 24 24" width="24px" height="24px"><path d="M18,21H6c-1.657,0-3-1.343-3-3V6c0-1.657,1.343-3,3-3h12c1.657,0,3,1.343,3,3v12	C21,19.657,19.657,21,18,21z" opacity=".35"/><circle cx="9" cy="8" r="1"/><circle cx="15" cy="8" r="1"/><path d="M12,13.24c-1.342,0-2.685-0.511-3.707-1.533c-0.391-0.391-0.391-1.023,0-1.414s1.023-0.391,1.414,0 c1.265,1.264,3.321,1.264,4.586,0c0.391-0.391,1.023-0.391,1.414,0s0.391,1.023,0,1.414C14.685,12.729,13.342,13.24,12,13.24z"/><path d="M18,3H6C4.343,3,3,4.343,3,6v12c0,1.657,1.343,3,3,3h12c1.657,0,3-1.343,3-3V6C21,4.343,19.657,3,18,3z M13,19H7	c-0.552,0-1-0.448-1-1s0.448-1,1-1h6c0.552,0,1,0.448,1,1S13.552,19,13,19z M17,19c-0.552,0-1-0.448-1-1c0-0.552,0.448-1,1-1	s1,0.448,1,1C18,18.552,17.552,19,17,19z M18,13c0,1.105-0.895,2-2,2H8c-1.105,0-2-0.895-2-2V7c0-1.105,0.895-2,2-2h8	c1.105,0,2,0.895,2,2V13z"/></svg>