<svg xmlns="http://www.w3.org/2000/svg"  viewBox="0 0 50 50" width="24px" height="24px"><path d="M 37.84375 0 C 37.027344 0 36.230469 0.28125 35.53125 0.84375 C 33.796875 2.234375 33.425781 3.269531 33 4.4375 C 32.851563 4.839844 32.695313 5.238281 32.46875 5.71875 C 32.371094 5.515625 32.28125 5.316406 32.1875 5.09375 C 31.835938 4.273438 31.429688 3.316406 30.625 2.625 C 29.257813 1.449219 27.292969 1.597656 26.625 2.8125 C 26.257813 3.476563 26.332031 4.296875 26.8125 5.0625 C 27.050781 5.445313 27.253906 5.703125 27.4375 5.9375 C 27.886719 6.515625 28.105469 6.792969 28.46875 9.40625 C 28.863281 12.257813 28.269531 15.960938 26.625 18 C 23.199219 11.414063 18.648438 5.886719 15.0625 4.0625 C 13.488281 3.261719 12.277344 3.964844 12.28125 5.4375 C 12.972656 13.378906 13.109375 17.976563 12.75 21.3125 C 12.6875 21.894531 11.714844 23.820313 11 25.21875 C 9.425781 28.296875 8.707031 29.832031 8.84375 30.8125 C 9.023438 32.085938 9.785156 33.78125 10.5 35.03125 C 10.46875 35.066406 10.433594 35.089844 10.40625 35.125 C 10.210938 35.378906 10.113281 35.667969 10.0625 35.96875 C 9.335938 36.542969 8.949219 37.300781 9.0625 38.0625 C 9.167969 38.773438 9.675781 39.339844 10.4375 39.65625 C 10.671875 40.269531 10.921875 40.847656 11.625 41.3125 C 11.441406 43.160156 11.253906 45.085938 11.0625 47.125 C 11.054688 47.222656 11.074219 47.308594 11.09375 47.40625 C 11.503906 49.410156 12.890625 49.625 13.46875 49.625 C 15.578125 49.625 18.386719 47.070313 20.84375 44.6875 C 21.171875 44.371094 21.519531 44.015625 21.625 43.9375 C 22.359375 43.398438 22.988281 43.125 23.5 43.125 C 24.5625 43.125 25.441406 44.429688 26.4375 45.9375 C 27.351563 47.320313 28.363281 48.886719 29.875 49.8125 C 29.988281 49.882813 30.144531 49.949219 30.28125 49.96875 C 30.484375 49.996094 30.65625 50 30.84375 50 C 31.957031 50 32.886719 49.503906 33.53125 48.5625 C 36.15625 44.722656 33.535156 34.195313 30.46875 26.28125 C 29.996094 19.234375 32.183594 17.363281 34.3125 16.5 C 35.621094 16.070313 36.308594 16.125 37.8125 16.5625 C 38.234375 16.683594 38.644531 16.71875 39.03125 16.71875 C 40.742188 16.71875 41.722656 15.566406 41.8125 14.40625 C 41.902344 13.253906 41.136719 11.859375 39.25 11.5625 C 38.988281 11.519531 38.738281 11.5 38.5 11.46875 C 38.367188 11.453125 38.25 11.421875 38.125 11.40625 C 38.472656 11.296875 38.945313 11.214844 39.59375 11.125 L 39.90625 11.09375 C 42.183594 10.769531 43.28125 9.265625 43.1875 7.9375 C 43.109375 6.800781 42.160156 5.625 40.21875 5.625 C 39.859375 5.625 39.460938 5.671875 39.0625 5.75 C 39.4375 5.285156 39.832031 4.800781 40.21875 4.25 C 40.832031 3.378906 40.949219 2.363281 40.5 1.5 C 40.027344 0.585938 38.96875 0 37.84375 0 Z M 20.34375 14.28125 C 20.570313 14.300781 20.789063 14.335938 21 14.40625 C 22.695313 14.980469 23.226563 17.097656 22.1875 19.125 C 21.148438 21.152344 18.914063 22.324219 17.21875 21.75 C 15.523438 21.175781 14.992188 19.089844 16.03125 17.0625 C 16.941406 15.289063 18.769531 14.148438 20.34375 14.28125 Z M 17.84375 17.0625 C 17.585938 17.070313 17.304688 17.207031 17.0625 17.46875 C 16.582031 17.988281 16.449219 18.8125 16.75 19.3125 C 17.050781 19.8125 17.675781 19.800781 18.15625 19.28125 C 18.636719 18.761719 18.800781 17.90625 18.5 17.40625 C 18.351563 17.15625 18.101563 17.054688 17.84375 17.0625 Z M 23.9375 23.5 C 26.25 28.324219 28.726563 34.769531 29.15625 41.03125 C 28.777344 40.550781 28.394531 40.007813 28.21875 39.6875 C 27.019531 37.527344 25.558594 36.4375 23.875 36.4375 C 21.339844 36.4375 19.0625 39.003906 17.40625 40.875 C 17.09375 41.230469 16.730469 41.632813 16.40625 41.96875 C 16.398438 41.464844 16.421875 40.679688 16.5625 39.40625 C 17.132813 35.289063 17.191406 32.472656 17.25 28.59375 C 17.261719 27.734375 17.261719 26.835938 17.28125 25.84375 C 18.183594 26.050781 19.074219 26.09375 19.09375 26.09375 C 20.570313 26.09375 22.453125 25.59375 23.9375 23.5 Z M 13.84375 28.125 C 13.710938 29.898438 13.671875 31.105469 13.5 32.9375 C 13.117188 31.941406 12.644531 31.824219 12.375 30.90625 C 12.929688 30.300781 13.28125 29.105469 13.84375 28.125 Z"/></svg>