<svg xmlns="http://www.w3.org/2000/svg"  viewBox="0 0 24 24" width="24px" height="24px"><path d="M22.946,15.334c-0.629-0.51-1.449-0.635-2.234-0.437C19.723,12.084,16.203,10,12,10c-4.188,0-7.697,2.069-8.702,4.867 c-0.75-0.157-1.522-0.018-2.121,0.467c-1.134,0.92-1.21,2.706-0.169,3.989c0.942,1.161,2.471,1.502,3.595,0.875 C6.228,21.89,8.933,23,12,23c3.097,0,5.827-1.13,7.446-2.85c1.13,0.686,2.706,0.359,3.669-0.828 C24.156,18.04,24.081,16.254,22.946,15.334z" opacity=".35"/><path d="M12,20.49c-1.427,0-2.854-0.173-4.242-0.521c-0.536-0.134-0.862-0.677-0.728-1.212c0.135-0.537,0.681-0.86,1.212-0.728 c2.459,0.613,5.057,0.613,7.516,0c0.531-0.133,1.078,0.19,1.212,0.728c0.134,0.535-0.192,1.078-0.728,1.212 C14.854,20.317,13.427,20.49,12,20.49z"/><path d="M9.5,12C8.119,12,7,13.119,7,14.5C7,15.881,8.119,17,9.5,17c0.25,0,0.487-0.048,0.714-0.116C10.082,16.616,10,16.319,10,16 c-0.552,0-1-0.448-1-1c0-0.552,0.448-1,1-1c0.33,0,0.609,0.171,0.791,0.418c0.324-0.247,0.722-0.402,1.159-0.413 C11.72,12.862,10.711,12,9.5,12z"/><path d="M14.5,12c-1.211,0-2.22,0.862-2.45,2.005c0.437,0.011,0.835,0.166,1.159,0.413C13.391,14.171,13.67,14,14,14 c0.552,0,1,0.448,1,1c0,0.552-0.448,1-1,1c0,0.319-0.082,0.616-0.214,0.884C14.013,16.952,14.25,17,14.5,17 c1.381,0,2.5-1.119,2.5-2.5C17,13.119,15.881,12,14.5,12z"/><path d="M20.155,13.465c-0.76-2.279-4.829-8.379-5.186-9.158C14.813,5.818,13.551,7,12,7S9.187,5.818,9.031,4.308 c-0.357,0.779-4.426,6.879-5.186,9.158l-0.227,0.681C4.925,11.721,8.18,10,12,10s7.075,1.721,8.382,4.146L20.155,13.465z"/><circle cx="12" cy="4" r="3" opacity=".35"/></svg>