<svg xmlns="http://www.w3.org/2000/svg"  viewBox="0 0 24 24" width="24px" height="24px"><circle cx="9" cy="8" r="3" opacity=".35"/><circle cx="15" cy="8" r="3" opacity=".35"/><circle cx="9" cy="8" r="1"/><circle cx="15" cy="8" r="1"/><path d="M14.908,3h-2.816c0.207,0.581,0.756,1,1.408,1S14.702,3.581,14.908,3z" opacity=".35"/><path d="M3,8.092v2.816c0.581-0.207,1-0.756,1-1.408S3.581,8.298,3,8.092z" opacity=".35"/><path d="M19,15c0,1.105,0.895,2,2,2v-4C19.895,13,19,13.895,19,15z" opacity=".35"/><path d="M17.812,12.516c-0.283-0.474-0.897-0.629-1.371-0.347c-2.76,1.646-6.179,1.634-8.925-0.025	c-0.473-0.287-1.087-0.133-1.373,0.339c-0.285,0.473-0.133,1.087,0.34,1.373C7.885,14.703,9.43,15.18,11,15.329V16	c0,0.552,0.448,1,1,1s1-0.448,1-1v-0.671c1.549-0.146,3.076-0.614,4.465-1.443C17.939,13.604,18.095,12.99,17.812,12.516z" opacity=".35"/><path d="M19,21H5c-1.105,0-2-0.895-2-2v0h18v0C21,20.105,20.105,21,19,21z" opacity=".35"/><path d="M21,13V6c0-1.657-1.343-3-3-3h-3.092c-0.207,0.581-0.756,1-1.408,1s-1.202-0.419-1.408-1H6C4.343,3,3,4.343,3,6v2.092	C3.581,8.298,4,8.848,4,9.5s-0.419,1.202-1,1.408V19h8.333L10,21h4l-1.333-2H21v-2c-1.105,0-2-0.895-2-2C19,13.895,19.895,13,21,13z M17.465,13.887c-1.389,0.828-2.915,1.296-4.465,1.443V16c0,0.552-0.448,1-1,1s-1-0.448-1-1v-0.671	c-1.57-0.148-3.115-0.626-4.517-1.473c-0.473-0.286-0.625-0.9-0.34-1.373c0.286-0.472,0.9-0.625,1.373-0.339	c2.746,1.659,6.165,1.67,8.925,0.025c0.474-0.283,1.088-0.127,1.371,0.347C18.095,12.99,17.939,13.604,17.465,13.887z M15,11	c-0.772,0-1.468-0.3-2-0.779V9c0-0.552-0.448-1-1-1s-1,0.448-1,1v1.221C10.468,10.7,9.772,11,9,11c-1.657,0-3-1.343-3-3	c0-1.657,1.343-3,3-3s3,1.343,3,3c0-1.657,1.343-3,3-3s3,1.343,3,3C18,9.657,16.657,11,15,11z"/></svg>